<svg xmlns="http://www.w3.org/2000/svg" width="900" height="1200" viewBox="0 0 900 1200" role="img" aria-label="儿童影楼拍摄照片视觉">
  <defs>
    <linearGradient id="bg" x1="0" x2="1" y1="0" y2="1">
      <stop offset="0" stop-color="#fff3de"/>
      <stop offset=".52" stop-color="#dff7ff"/>
      <stop offset="1" stop-color="#9db7ff"/>
    </linearGradient>
    <radialGradient id="light" cx=".45" cy=".25" r=".62">
      <stop offset="0" stop-color="#fff" stop-opacity=".95"/>
      <stop offset=".38" stop-color="#fff9ed" stop-opacity=".72"/>
      <stop offset="1" stop-color="#ffffff" stop-opacity="0"/>
    </radialGradient>
    <filter id="soft" x="-20%" y="-20%" width="140%" height="140%">
      <feGaussianBlur stdDeviation="10"/>
    </filter>
  </defs>
  <rect width="900" height="1200" rx="56" fill="url(#bg)"/>
  <rect width="900" height="1200" rx="56" fill="url(#light)"/>
  <circle cx="742" cy="214" r="84" fill="#fff" opacity=".48"/>
  <circle cx="196" cy="194" r="40" fill="#fff" opacity=".52"/>
  <circle cx="124" cy="760" r="106" fill="#ffe2ef" opacity=".62" filter="url(#soft)"/>
  <ellipse cx="450" cy="1030" rx="310" ry="74" fill="#687699" opacity=".22"/>
  <path d="M315 520c-76 28-122 98-120 178 4 136 108 246 255 246s251-110 255-246c2-80-44-150-120-178-44-16-226-16-270 0z" fill="#ffffff"/>
  <path d="M333 548c-58 34-92 88-92 156 0 114 90 202 209 202s209-88 209-202c0-68-34-122-92-156-46 38-188 38-234 0z" fill="#67b7ff"/>
  <circle cx="450" cy="402" r="158" fill="#f2bea2"/>
  <path d="M296 374c25-110 104-168 184-158 85 10 144 82 151 179-56-54-106-64-170-50-62 14-107 8-165 29z" fill="#342332"/>
  <circle cx="391" cy="416" r="12" fill="#25202b"/>
  <circle cx="508" cy="416" r="12" fill="#25202b"/>
  <path d="M421 480c28 24 61 24 88 0" fill="none" stroke="#c46d68" stroke-width="10" stroke-linecap="round"/>
  <circle cx="356" cy="456" r="26" fill="#ee8f8a" opacity=".38"/>
  <circle cx="544" cy="456" r="26" fill="#ee8f8a" opacity=".38"/>
  <path d="M268 700c-70 2-130 38-164 102" fill="none" stroke="#fff" stroke-width="34" stroke-linecap="round" opacity=".78"/>
  <path d="M632 700c70 2 130 38 164 102" fill="none" stroke="#fff" stroke-width="34" stroke-linecap="round" opacity=".78"/>
  <text x="58" y="1120" fill="#ffffff" font-family="Arial, sans-serif" font-size="42" font-weight="700" opacity=".72">STUDIO KIDS</text>
</svg>
