<svg xmlns="http://www.w3.org/2000/svg" width="900" height="1200" viewBox="0 0 900 1200" role="img" aria-label="爱婴上门拍摄照片视觉">
  <defs>
    <linearGradient id="room" x1="0" x2="1" y1="0" y2="1">
      <stop offset="0" stop-color="#fff8eb"/>
      <stop offset=".58" stop-color="#f8e3cf"/>
      <stop offset="1" stop-color="#d9f3ff"/>
    </linearGradient>
    <radialGradient id="window" cx=".25" cy=".18" r=".62">
      <stop offset="0" stop-color="#fff" stop-opacity=".96"/>
      <stop offset=".45" stop-color="#fff" stop-opacity=".42"/>
      <stop offset="1" stop-color="#fff" stop-opacity="0"/>
    </radialGradient>
    <filter id="blur" x="-20%" y="-20%" width="140%" height="140%">
      <feGaussianBlur stdDeviation="12"/>
    </filter>
  </defs>
  <rect width="900" height="1200" rx="56" fill="url(#room)"/>
  <rect width="900" height="1200" rx="56" fill="url(#window)"/>
  <rect x="92" y="120" width="186" height="300" rx="22" fill="#ffffff" opacity=".72"/>
  <rect x="126" y="152" width="48" height="236" fill="#d8efff" opacity=".78"/>
  <rect x="194" y="152" width="48" height="236" fill="#d8efff" opacity=".78"/>
  <circle cx="745" cy="218" r="66" fill="#ffe7ad" opacity=".54" filter="url(#blur)"/>
  <ellipse cx="454" cy="895" rx="332" ry="120" fill="#ffffff" opacity=".82"/>
  <ellipse cx="454" cy="934" rx="360" ry="82" fill="#b99579" opacity=".16"/>
  <path d="M265 744c58-112 180-162 302-120 72 25 119 74 144 147-92 118-346 127-446-27z" fill="#f7d8c9"/>
  <circle cx="438" cy="553" r="124" fill="#f0bca1"/>
  <path d="M326 518c16-82 76-128 138-124 72 4 124 60 130 139-38-35-77-47-126-36-58 13-94 8-142 21z" fill="#5d4238"/>
  <circle cx="395" cy="565" r="9" fill="#2e2430"/>
  <circle cx="482" cy="565" r="9" fill="#2e2430"/>
  <path d="M412 622c22 16 45 16 68 0" fill="none" stroke="#c06f68" stroke-width="8" stroke-linecap="round"/>
  <circle cx="365" cy="600" r="24" fill="#f08e86" opacity=".34"/>
  <circle cx="512" cy="600" r="24" fill="#f08e86" opacity=".34"/>
  <path d="M232 786c72 70 144 106 220 108 88 2 168-38 236-116" fill="none" stroke="#fff6ed" stroke-width="94" stroke-linecap="round"/>
  <circle cx="190" cy="762" r="44" fill="#f1bba0"/>
  <circle cx="704" cy="760" r="44" fill="#f1bba0"/>
  <text x="58" y="1120" fill="#ffffff" font-family="Arial, sans-serif" font-size="42" font-weight="700" opacity=".72">HOME BABY</text>
</svg>
